<?xml version="1.0" encoding="UTF-8" standalone="no"?>
<!DOCTYPE svg PUBLIC "-//W3C//DTD SVG 1.1//EN"
 "http://www.w3.org/Graphics/SVG/1.1/DTD/svg11.dtd">
<!-- Generated by graphviz version 2.40.1 (20161225.0304)
 -->
<!-- Title: dependencies Pages: 1 -->
<svg width="889pt" height="284pt"
 viewBox="0.00 0.00 889.00 284.00" xmlns="http://www.w3.org/2000/svg" xmlns:xlink="http://www.w3.org/1999/xlink">
<g id="graph0" class="graph" transform="scale(1 1) rotate(0) translate(4 280)">
<title>dependencies</title>
<polygon fill="#ffffff" stroke="transparent" points="-4,4 -4,-280 885,-280 885,4 -4,4"/>
<text text-anchor="start" x="419.5091" y="-42.4" font-family="sans-serif" font-weight="bold" font-size="14.00" fill="#000000">Legend</text>
<polygon fill="#ffffb3" stroke="transparent" points="206.5,-10 206.5,-30 226.5,-30 226.5,-10 206.5,-10"/>
<text text-anchor="start" x="230.129" y="-15.4" font-family="sans-serif" font-size="14.00" fill="#000000"> &#160;Declarations</text>
<polygon fill="#8dd3c7" stroke="transparent" points="319.5,-10 319.5,-30 339.5,-30 339.5,-10 319.5,-10"/>
<text text-anchor="start" x="343.2251" y="-15.4" font-family="sans-serif" font-size="14.00" fill="#000000"> &#160;Module</text>
<polygon fill="#80b1d3" stroke="transparent" points="405.5,-10 405.5,-30 425.5,-30 425.5,-10 405.5,-10"/>
<text text-anchor="start" x="429.2812" y="-15.4" font-family="sans-serif" font-size="14.00" fill="#000000"> &#160;Bootstrap</text>
<polygon fill="#fdb462" stroke="transparent" points="502.5,-10 502.5,-30 522.5,-30 522.5,-10 502.5,-10"/>
<text text-anchor="start" x="526.1732" y="-15.4" font-family="sans-serif" font-size="14.00" fill="#000000"> &#160;Providers</text>
<polygon fill="#fb8072" stroke="transparent" points="598.5,-10 598.5,-30 618.5,-30 618.5,-10 598.5,-10"/>
<text text-anchor="start" x="622.2258" y="-15.4" font-family="sans-serif" font-size="14.00" fill="#000000"> &#160;Exports</text>
<g id="clust1" class="cluster">
<title>cluster_AppModule</title>
<polygon fill="none" stroke="#000000" stroke-dasharray="1,5" points="8,-70 8,-268 873,-268 873,-70 8,-70"/>
</g>
<g id="clust2" class="cluster">
<title>cluster_AppModule_declarations</title>
<polygon fill="none" stroke="#000000" points="398,-78 398,-130 865,-130 865,-78 398,-78"/>
</g>
<g id="clust8" class="cluster">
<title>cluster_AppModule_bootstrap</title>
<polygon fill="none" stroke="#000000" points="418,-208 418,-260 542,-260 542,-208 418,-208"/>
</g>
<g id="clust9" class="cluster">
<title>cluster_AppModule_providers</title>
<polygon fill="none" stroke="#000000" points="16,-78 16,-130 390,-130 390,-78 16,-78"/>
</g>
<!-- AppComponent -->
<g id="node1" class="node">
<title>AppComponent</title>
<polygon fill="#ffffb3" stroke="#000000" points="856.9399,-122 751.0601,-122 751.0601,-86 856.9399,-86 856.9399,-122"/>
<text text-anchor="middle" x="804" y="-99.8" font-family="Times,serif" font-size="14.00" fill="#000000">AppComponent</text>
</g>
<!-- AppModule -->
<g id="node4" class="node">
<title>AppModule</title>
<polygon fill="#8dd3c7" stroke="#000000" points="521.6571,-187 518.6571,-191 497.6571,-191 494.6571,-187 438.3429,-187 438.3429,-151 521.6571,-151 521.6571,-187"/>
<text text-anchor="middle" x="480" y="-164.8" font-family="Times,serif" font-size="14.00" fill="#000000">AppModule</text>
</g>
<!-- AppComponent&#45;&gt;AppModule -->
<g id="edge1" class="edge">
<title>AppComponent&#45;&gt;AppModule</title>
<path fill="none" stroke="#000000" d="M804,-122.2843C804,-143.3211 804,-175 804,-175 804,-175 531.694,-175 531.694,-175"/>
<polygon fill="#000000" stroke="#000000" points="531.6941,-171.5001 521.694,-175 531.694,-178.5001 531.6941,-171.5001"/>
</g>
<!-- AddressDetailComponent -->
<g id="node2" class="node">
<title>AddressDetailComponent</title>
<polygon fill="#ffffb3" stroke="#000000" points="733.9115,-122 572.0885,-122 572.0885,-86 733.9115,-86 733.9115,-122"/>
<text text-anchor="middle" x="653" y="-99.8" font-family="Times,serif" font-size="14.00" fill="#000000">AddressDetailComponent</text>
</g>
<!-- AddressDetailComponent&#45;&gt;AppModule -->
<g id="edge2" class="edge">
<title>AddressDetailComponent&#45;&gt;AppModule</title>
<path fill="none" stroke="#000000" d="M653,-122.0225C653,-139.3734 653,-163 653,-163 653,-163 531.8785,-163 531.8785,-163"/>
<polygon fill="#000000" stroke="#000000" points="531.8785,-159.5001 521.8785,-163 531.8784,-166.5001 531.8785,-159.5001"/>
</g>
<!-- AddressListComponent -->
<g id="node3" class="node">
<title>AddressListComponent</title>
<polygon fill="#ffffb3" stroke="#000000" points="554.4818,-122 405.5182,-122 405.5182,-86 554.4818,-86 554.4818,-122"/>
<text text-anchor="middle" x="480" y="-99.8" font-family="Times,serif" font-size="14.00" fill="#000000">AddressListComponent</text>
</g>
<!-- AddressListComponent&#45;&gt;AppModule -->
<g id="edge3" class="edge">
<title>AddressListComponent&#45;&gt;AppModule</title>
<path fill="none" stroke="#000000" d="M480,-122.1061C480,-122.1061 480,-140.991 480,-140.991"/>
<polygon fill="#000000" stroke="#000000" points="476.5001,-140.9909 480,-150.991 483.5001,-140.991 476.5001,-140.9909"/>
</g>
<!-- AppComponent  -->
<g id="node5" class="node">
<title>AppComponent </title>
<polygon fill="#80b1d3" stroke="#000000" points="534.439,-252 425.561,-252 425.561,-216 534.439,-216 534.439,-252"/>
<text text-anchor="middle" x="480" y="-229.8" font-family="Times,serif" font-size="14.00" fill="#000000">AppComponent </text>
</g>
<!-- AppModule&#45;&gt;AppComponent  -->
<g id="edge4" class="edge">
<title>AppModule&#45;&gt;AppComponent </title>
<path fill="none" stroke="#000000" stroke-dasharray="1,5" d="M480,-187.1061C480,-187.1061 480,-205.991 480,-205.991"/>
<polygon fill="#000000" stroke="#000000" points="476.5001,-205.9909 480,-215.991 483.5001,-205.991 476.5001,-205.9909"/>
</g>
<!-- AddressHelperService -->
<g id="node6" class="node">
<title>AddressHelperService</title>
<ellipse fill="#fdb462" stroke="#000000" cx="284" cy="-104" rx="97.8093" ry="18"/>
<text text-anchor="middle" x="284" y="-99.8" font-family="Times,serif" font-size="14.00" fill="#000000">AddressHelperService</text>
</g>
<!-- AddressHelperService&#45;&gt;AppModule -->
<g id="edge5" class="edge">
<title>AddressHelperService&#45;&gt;AppModule</title>
<path fill="none" stroke="#000000" d="M284,-122.0225C284,-139.3734 284,-163 284,-163 284,-163 427.9531,-163 427.9531,-163"/>
<polygon fill="#000000" stroke="#000000" points="427.9531,-166.5001 437.9531,-163 427.953,-159.5001 427.9531,-166.5001"/>
</g>
<!-- AddressService -->
<g id="node7" class="node">
<title>AddressService</title>
<ellipse fill="#fdb462" stroke="#000000" cx="96" cy="-104" rx="71.766" ry="18"/>
<text text-anchor="middle" x="96" y="-99.8" font-family="Times,serif" font-size="14.00" fill="#000000">AddressService</text>
</g>
<!-- AddressService&#45;&gt;AppModule -->
<g id="edge6" class="edge">
<title>AddressService&#45;&gt;AppModule</title>
<path fill="none" stroke="#000000" d="M96,-122.2843C96,-143.3211 96,-175 96,-175 96,-175 428.1743,-175 428.1743,-175"/>
<polygon fill="#000000" stroke="#000000" points="428.1743,-178.5001 438.1743,-175 428.1742,-171.5001 428.1743,-178.5001"/>
</g>
</g>
</svg>
